<?xml version="1.0" standalone="no"?><!DOCTYPE svg PUBLIC "-//W3C//DTD SVG 1.1//EN" "http://www.w3.org/Graphics/SVG/1.1/DTD/svg11.dtd"><svg t="1727422411495" class="icon" viewBox="0 0 1024 1024" version="1.1" xmlns="http://www.w3.org/2000/svg" p-id="10382" xmlns:xlink="http://www.w3.org/1999/xlink" width="200" height="200"><path d="M831.15008 785.07008l30.72 0 0 76.8-76.8 0 0-30.72 46.08 0L831.15008 785.07008zM348.16 861.87008l109.23008 0 0-30.72L348.16 831.15008 348.16 861.87008zM566.60992 861.87008 675.84 861.87008l0-30.72L566.60992 831.15008 566.60992 861.87008zM192.84992 785.07008l-30.72 0 0 76.8 76.8 0 0-30.72-46.08 0L192.84992 785.07008zM192.84992 566.60992l-30.72 0L162.12992 675.84l30.72 0L192.84992 566.60992zM192.84992 348.16l-30.72 0 0 109.23008 30.72 0L192.84992 348.16zM162.12992 238.92992l30.72 0 0-46.08 46.08 0 0-30.72-76.8 0L162.12992 238.92992zM457.39008 162.12992 348.16 162.12992l0 30.72 109.23008 0L457.39008 162.12992zM566.60992 192.84992 675.84 192.84992l0-30.72L566.60992 162.12992 566.60992 192.84992zM785.07008 162.12992l0 30.72 46.08 0 0 46.08 30.72 0 0-76.8L785.07008 162.12992zM831.15008 675.84l30.72 0L861.87008 566.60992l-30.72 0L831.15008 675.84zM831.15008 457.39008l30.72 0L861.87008 348.16l-30.72 0L831.15008 457.39008z" fill="#020202" p-id="10383"></path></svg>